<svg width="60" height="13" viewBox="0 0 60 13" fill="none" xmlns="http://www.w3.org/2000/svg">
<path d="M10.7909 3.84653H11.7836L13.6312 6.4835L15.5022 3.847H16.4769V7.38596H15.7068V4.66873L13.8177 7.38654H13.45L11.561 4.66873V7.38654H10.7909V3.84653ZM17.3785 3.84653H20.9281V4.388H18.1907V5.33041H20.91V5.87188H18.1907V6.84448H20.9281V7.38596H17.3785V3.84653ZM21.68 3.84653H23.9602C25.1213 3.84653 25.9812 4.17743 26.3365 4.85921C26.4509 5.07477 26.5177 5.32542 26.5177 5.61624C26.5177 5.90707 26.4576 6.1576 26.3365 6.37828C25.9695 7.05506 25.1213 7.38596 23.9602 7.38596H21.68V3.84653ZM23.9 6.8144C24.7122 6.8144 25.2838 6.59373 25.5308 6.14761C25.6091 5.99662 25.6512 5.81671 25.6512 5.61624C25.6512 5.41578 25.6094 5.23517 25.5308 5.08476C25.2842 4.63865 24.7126 4.41797 23.9 4.41797H22.4923V6.8144H23.9ZM31.1976 6.40789C31.1995 6.54572 31.1667 6.68235 31.1013 6.80894C30.8727 7.22498 30.2712 7.38549 29.5492 7.38549H27.1728V3.84653H29.5131C30.1808 3.84653 30.6802 4.00194 30.879 4.35757C30.9392 4.4678 30.9693 4.59312 30.9693 4.73853C30.9693 4.89393 30.9392 5.0289 30.879 5.13958C30.7707 5.33517 30.5724 5.46549 30.2774 5.54063C30.6865 5.5958 30.9693 5.74122 31.1077 6.00185C31.1675 6.11753 31.1976 6.24738 31.1976 6.40789ZM27.9849 5.32995H29.1642C29.6334 5.32995 29.9704 5.26479 30.0841 5.04922C30.1202 4.99405 30.1322 4.92889 30.1322 4.84875C30.1333 4.78304 30.1168 4.71795 30.0841 4.65816C29.9577 4.43748 29.6028 4.37744 29.1642 4.37744H27.9849V5.32995ZM30.3312 6.36271C30.3312 6.28257 30.3192 6.22241 30.2894 6.16724C30.1572 5.92659 29.7842 5.86143 29.3389 5.86143H27.9852V6.85401H29.345C29.7962 6.85401 30.1631 6.78432 30.2834 6.56364C30.316 6.50034 30.3323 6.43158 30.3312 6.36271ZM31.8898 3.84653H32.7019V7.38596H31.8898V3.84653ZM33.5562 6.40325C33.4299 6.1727 33.3637 5.90696 33.3637 5.61624C33.3615 5.35092 33.425 5.08808 33.5502 4.84411C33.9172 4.15734 34.8196 3.7463 36.1251 3.7463C37.4366 3.7463 38.3272 4.15281 38.6879 4.82413C38.8226 5.07314 38.8923 5.34312 38.8925 5.61624C38.8939 5.89486 38.822 6.17035 38.6819 6.42334C38.309 7.09513 37.4185 7.48619 36.1191 7.48619C34.8196 7.48619 33.9232 7.09013 33.5562 6.40325ZM37.8818 6.1677C37.9693 5.99291 38.0143 5.8054 38.0143 5.61601C38.0143 5.42663 37.9693 5.23912 37.8818 5.06432C37.6231 4.58812 36.9914 4.32738 36.1256 4.32738C35.2654 4.32738 34.6343 4.58801 34.3749 5.06432C34.2875 5.23913 34.2425 5.42664 34.2425 5.61601C34.2425 5.80539 34.2875 5.99289 34.3749 6.1677C34.6336 6.6439 35.2654 6.90465 36.1256 6.90465C36.991 6.90465 37.6231 6.6439 37.8818 6.1677ZM10.7909 8.66704H11.6031V12.2065H10.7909V8.66704ZM12.5053 8.66704H13.4439L16.2836 11.4645V8.66704H17.0897V12.2065H16.1212L13.3116 9.44917V12.2065H12.5054L12.5053 8.66704ZM17.9919 8.66704H20.9346V9.2235H18.8049V10.166H20.9225V10.7225H18.8044V12.2065H17.9921L17.9919 8.66704ZM21.5295 11.2239C21.4032 10.9932 21.337 10.7275 21.337 10.4368C21.3348 10.1715 21.3983 9.90866 21.5235 9.66473C21.8906 8.97785 22.7931 8.56739 24.0985 8.56739C25.4101 8.56739 26.3007 8.9739 26.6614 9.64522C26.7961 9.89421 26.8659 10.1642 26.866 10.4373C26.8675 10.716 26.7956 10.9915 26.6554 11.2444C26.2824 11.9162 25.3921 12.3073 24.0925 12.3073C22.793 12.3073 21.8962 11.9106 21.5295 11.2239ZM25.8547 10.9882C25.9422 10.8134 25.9872 10.6259 25.9872 10.4365C25.9872 10.2471 25.9422 10.0596 25.8547 9.88483C25.596 9.40863 24.9643 9.14789 24.0985 9.14789C23.2383 9.14789 22.6072 9.40852 22.3479 9.88483C22.2604 10.0596 22.2154 10.2471 22.2154 10.4365C22.2154 10.6259 22.2604 10.8134 22.3479 10.9882C22.6066 11.4644 23.2383 11.7252 24.0985 11.7252C24.9649 11.7252 25.5965 11.4645 25.8547 10.9882ZM29.0073 10.8478H28.3335V12.2067H27.5212V8.66704H29.9698C30.6978 8.66704 31.2513 8.85288 31.4679 9.26368C31.5401 9.394 31.5762 9.54441 31.5762 9.71979C31.5762 9.92037 31.5343 10.0959 31.4559 10.2463C31.2453 10.6372 30.752 10.8378 30.0721 10.8478L31.8951 12.2067H30.782L29.0073 10.8478ZM28.3335 10.3064H29.7773C30.2586 10.3064 30.5775 10.2463 30.6972 10.0161C30.7391 9.94093 30.7575 9.85568 30.7575 9.74534C30.7575 9.6501 30.7394 9.56988 30.7032 9.50468C30.583 9.27414 30.2521 9.20898 29.7768 9.20898H28.3341L28.3335 10.3064ZM32.4003 8.66704H33.393L35.2399 11.3035L37.1109 8.66704H38.0855V12.2065H37.3155V9.48866L35.4263 12.2065H35.0594L33.1704 9.48866V12.2065H32.4003V8.66704ZM42.5073 11.3391H39.8849L39.3795 12.2065H38.4952L40.6309 8.66704H41.7498L43.8856 12.2065H43.0133L42.5073 11.3391ZM42.1704 10.7677L41.1958 9.10317H41.1838L40.2153 10.7677H42.1704ZM44.7874 9.2386H43.314V8.66704H47.0621V9.2386H45.5941V12.2065H44.788L44.7874 9.2386ZM47.5789 8.66704H48.3922V12.2065H47.58L47.5789 8.66704ZM49.2393 11.2088C49.1189 10.9782 49.0528 10.7225 49.0528 10.4368C49.0528 10.151 49.1189 9.89029 49.2393 9.66473C49.6123 8.97785 50.5327 8.56681 51.8142 8.56681C52.6504 8.56681 53.3964 8.75264 53.8837 9.11269C54.2267 9.37832 54.4251 9.72432 54.4551 10.1304H53.6009C53.5591 9.86961 53.4197 9.66915 53.2158 9.51874C52.8916 9.26868 52.3923 9.14812 51.8267 9.14812C50.9605 9.14812 50.3167 9.40875 50.058 9.89006C49.9695 10.0631 49.9244 10.2493 49.9253 10.4373C49.9253 10.6429 49.9671 10.8183 50.0517 10.9788C50.3224 11.4801 50.9842 11.7257 51.8204 11.7257C52.404 11.7257 52.9274 11.6054 53.2523 11.3548C53.4569 11.1994 53.5892 10.9988 53.6133 10.7431H54.4615C54.4314 11.1693 54.2329 11.5097 53.8901 11.7658C53.4087 12.1268 52.6627 12.3073 51.8085 12.3073C50.5092 12.3073 49.6063 11.9056 49.2393 11.2088ZM55.0087 11.5196C54.9311 11.364 54.8922 11.1968 54.8944 11.0283H55.7307C55.7347 11.1214 55.7592 11.2132 55.8029 11.299C55.9894 11.65 56.5307 11.7703 57.1925 11.7703C57.7521 11.7703 58.3056 11.6801 58.456 11.4193C58.4801 11.3683 58.4923 11.3138 58.4921 11.2589C58.493 11.2071 58.4807 11.1556 58.456 11.108C58.2755 10.7821 57.4573 10.747 56.7473 10.6567C55.9773 10.5515 55.3155 10.381 55.0869 9.96485C55.0388 9.86961 55.0147 9.76439 55.0147 9.63965C55.0134 9.51911 55.0419 9.39963 55.0983 9.28865C55.3632 8.79236 56.2054 8.56681 57.1018 8.56681C58.0217 8.56681 58.8284 8.80746 59.1112 9.33337C59.1834 9.46369 59.2195 9.61409 59.2195 9.77948H58.3772C58.3741 9.68988 58.3499 9.60166 58.3061 9.51978C58.1376 9.20898 57.6865 9.09365 57.1089 9.09365C56.5792 9.09365 56.044 9.19388 55.9116 9.44452C55.8919 9.48252 55.8817 9.52346 55.8817 9.56485C55.8823 9.6078 55.8925 9.65028 55.9116 9.69017C56.0681 9.976 56.7961 10.0261 57.4759 10.1214C58.294 10.2316 59.0401 10.392 59.2868 10.8531C59.3409 10.9534 59.3704 11.0687 59.3704 11.209C59.3718 11.342 59.339 11.4736 59.2741 11.5951C58.9975 12.1061 58.1552 12.3069 57.1865 12.3069C56.1523 12.3073 55.3095 12.0811 55.0087 11.5196ZM59.427 8.61745H59.3363V8.56739H59.5893V8.61733H59.4987V8.78249H59.427V8.61745ZM59.6175 8.56751H59.7012L59.8093 8.71849L59.9192 8.56751H60V8.78261H59.9334V8.63766L59.8284 8.78261H59.7894L59.6836 8.63766V8.78261H59.617L59.6175 8.56751ZM14.7977 0.871696C14.7977 0.871696 14.7225 0.880291 14.5818 0.894112L14.4648 0.906772C14.422 0.911534 14.3755 0.915599 14.3254 0.921987L14.1633 0.940338L13.9796 0.962986C13.9154 0.971116 13.8479 0.981105 13.7773 0.990164L13.5569 1.02269C13.4036 1.04696 13.2405 1.07472 13.068 1.1084C12.7233 1.17681 12.3422 1.2674 11.9529 1.40062C11.7527 1.46871 11.5572 1.54627 11.3676 1.63291L11.2952 1.66776L11.259 1.68506L11.224 1.70318L11.1518 1.7393L11.0806 1.77717C10.9859 1.82885 10.8913 1.8824 10.7995 1.94082C10.7528 1.96916 10.708 2.00028 10.6622 2.03025C10.6163 2.06021 10.5717 2.09215 10.5278 2.12514C10.4394 2.18983 10.3516 2.25778 10.2672 2.33037C10.1827 2.40296 10.0999 2.47683 10.0189 2.55523C9.93795 2.63363 9.86004 2.71539 9.78338 2.79995C9.62697 2.97453 9.48118 3.15556 9.34657 3.34235C9.20803 3.53422 9.07464 3.73527 8.94446 3.94375C8.68397 4.36059 8.43378 4.80543 8.1613 5.25619C7.88881 5.70695 7.59194 6.16306 7.23903 6.595C7.06318 6.81142 6.87238 7.01913 6.66758 7.21708C6.56481 7.31573 6.45875 7.41116 6.34938 7.50338C6.24001 7.5956 6.12712 7.68368 6.01069 7.76761C5.89473 7.85182 5.77514 7.93114 5.6543 8.00664C5.53346 8.08213 5.40913 8.15194 5.28467 8.21826C5.1602 8.28457 5.03379 8.34462 4.9064 8.40095C4.779 8.45728 4.65217 8.50885 4.52436 8.55485C4.39655 8.60084 4.26999 8.64381 4.144 8.68261L4.04936 8.71002C4.018 8.71896 3.98692 8.72837 3.95542 8.7365C3.8927 8.75299 3.83095 8.77018 3.76879 8.78435C3.53177 8.84186 3.29112 8.88839 3.04792 8.92372C2.816 8.95752 2.59341 8.98005 2.38225 8.99481L2.22587 9.00398L2.18754 9.0063L2.14935 9.0077L2.07395 9.01037C1.97429 9.01478 1.87757 9.01536 1.78404 9.01687C1.46287 9.01821 1.14183 9.00518 0.822332 8.97785C0.690202 8.96728 0.572845 8.95334 0.471099 8.94231C0.369213 8.92918 0.282938 8.91827 0.213249 8.90746C0.0738705 8.8854 0 8.87262 0 8.87262C0 8.87262 0.0749855 8.861 0.214364 8.84324L0.470541 8.80839L0.632081 8.78516C0.689505 8.77761 0.750274 8.76751 0.814388 8.75798C1.07084 8.71908 1.37985 8.6682 1.72676 8.59852L1.85847 8.57064C1.88063 8.566 1.90307 8.5617 1.92551 8.55659L1.99339 8.54126L2.0621 8.52581L2.09667 8.51803L2.13137 8.50978L2.27187 8.47587C2.46128 8.4286 2.65781 8.37517 2.85809 8.31326C3.05838 8.25136 3.26229 8.18109 3.46704 8.10072L3.5055 8.08573C3.51833 8.08062 3.53101 8.07528 3.54369 8.06994L3.62049 8.03846C3.64628 8.02824 3.6715 8.01674 3.69701 8.00583L3.77381 7.97249C3.875 7.92603 3.97744 7.87957 4.07765 7.82696C4.17787 7.77435 4.27766 7.72104 4.37648 7.66436C4.4254 7.6352 4.47488 7.60628 4.52297 7.57597C4.57105 7.54566 4.61942 7.51453 4.66764 7.48305C4.69161 7.46737 4.71503 7.45076 4.73886 7.43474L4.7744 7.41046L4.80939 7.38538C4.8328 7.36865 4.8565 7.35216 4.87908 7.3352L4.94877 7.2834C4.97218 7.26633 4.99448 7.24856 5.01734 7.23055L5.05163 7.20384C5.06292 7.1949 5.07393 7.18561 5.08522 7.17655C5.10752 7.15819 5.13024 7.14019 5.15254 7.12161L5.21874 7.06528C5.57151 6.76272 5.88776 6.40905 6.17767 6.02066C6.32262 5.82616 6.46232 5.62399 6.59678 5.41415C6.73239 5.20509 6.86466 4.98987 6.99707 4.77105C7.26259 4.33388 7.5295 3.88173 7.83473 3.44014C7.98721 3.21946 8.14973 3.00134 8.32521 2.79065C8.5002 2.57995 8.69063 2.37844 8.8954 2.18728C8.99761 2.0925 9.1035 2.00129 9.21305 1.91364C9.32232 1.82618 9.43605 1.74337 9.55118 1.66474C9.58045 1.64546 9.60902 1.62571 9.63843 1.60667L9.72666 1.55045C9.7562 1.5321 9.78645 1.51445 9.81614 1.49656C9.84582 1.47867 9.87593 1.46172 9.90618 1.44429C9.96597 1.40945 10.0276 1.37763 10.0881 1.34545C10.1187 1.32977 10.1497 1.31468 10.1803 1.299C10.211 1.28332 10.2419 1.26926 10.2729 1.25486L10.3192 1.23326C10.3345 1.22606 10.35 1.21909 10.3656 1.21235L10.4584 1.17182C10.4893 1.15834 10.5208 1.14615 10.5518 1.1336C10.5827 1.12106 10.6138 1.10863 10.6452 1.09725L10.7383 1.06241L10.8315 1.02989L10.8778 1.01397C10.8933 1.00875 10.909 1.0041 10.9245 0.999108L11.0172 0.970071C11.048 0.960779 11.0789 0.952185 11.1096 0.943241C11.1402 0.934298 11.1706 0.925355 11.2014 0.917573C11.2626 0.901545 11.3231 0.885517 11.3837 0.871928L11.4739 0.851138L11.5635 0.832439C11.6228 0.81943 11.6821 0.809209 11.7405 0.798872C12.16 0.72713 12.5872 0.691557 13.0154 0.692715C13.3379 0.692946 13.6599 0.710481 13.9796 0.745213L14.1663 0.767165L14.3299 0.789813C14.4314 0.80468 14.5174 0.81943 14.5866 0.831045C14.7242 0.856713 14.7977 0.871696 14.7977 0.871696Z" fill="#34312C"/>
</svg>
