<svg width="34" height="28" viewBox="0 0 34 28" fill="none" xmlns="http://www.w3.org/2000/svg">
<path d="M16.3436 28C15.3043 28 14.1726 27.6542 13.2257 27.3545C11.9093 26.9396 10.616 26.3403 9.41504 25.6718C7.08242 24.3578 5.16552 22.6981 3.38719 20.7156C3.29481 20.6234 3.31791 20.5542 3.38719 20.462C4.63433 19.0328 5.90457 17.6266 7.22099 16.2666C7.54433 15.9439 11.0086 12.3017 11.1934 12.463C14.0803 15.0448 16.9672 17.6497 20.1543 19.9318C21.9788 21.2227 23.8495 22.3984 25.7664 23.551C23.8726 24.888 21.8633 26.0867 19.7386 26.9627C18.861 27.3315 17.9833 27.7234 17.0595 27.9078C16.8286 27.9539 16.5745 27.9769 16.3436 27.9769V28Z" fill="#34312C"/>
<path d="M0.0177873 11.6101C0.0870728 10.5036 0.410405 9.44324 1.08017 8.56727C2.11945 7.18416 3.34349 5.89325 4.68301 4.80981C4.82159 4.99423 4.86778 5.22475 4.98325 5.43221C6.06872 7.27636 7.50063 8.65948 8.88634 10.2501C8.95562 10.3192 6.16111 12.9932 5.93015 13.2468C4.96016 14.238 4.03635 15.2754 3.18183 16.3819C2.69683 17.0273 2.23492 17.6958 1.77302 18.3643C1.44969 17.8341 1.19564 17.2117 0.96469 16.6354C0.364215 15.1371 -0.0976886 13.316 0.0177873 11.6101Z" fill="#34312C"/>
<path d="M14.4544 9.62756C14.6392 9.4662 14.8009 9.32789 14.9856 9.18958C15.8401 8.49802 16.6947 7.78341 17.5723 7.09186C18.3806 6.46945 19.1659 5.84705 19.9973 5.2477C21.1058 4.44089 22.2144 3.68018 23.3461 2.91947C23.4154 2.87336 23.5539 2.87336 23.6232 2.91947C24.1775 3.21914 24.7549 3.51881 25.3092 3.84154C26.1868 4.39479 27.0413 4.94803 27.8727 5.54738C28.5656 6.07757 29.2123 6.65387 29.8589 7.25322C30.8751 8.19834 31.7527 9.28178 32.538 10.4344C33.0461 11.2181 33.4849 12.025 33.8544 12.8779C33.8544 12.924 33.8544 12.9931 33.8544 13.0623C33.4849 14.0996 33.0461 15.0909 32.4918 16.059C31.9606 17.0042 31.337 17.9262 30.6442 18.7792C30.1361 19.4246 29.6049 20.024 29.0506 20.6464C28.8427 20.8999 28.6118 21.1304 28.3577 21.384C23.8773 17.2347 19.212 13.385 14.4544 9.62756Z" fill="#34312C"/>
<path d="M6.31957 3.54187C6.666 3.31135 6.98933 3.08083 7.33576 2.85031C7.82076 2.55064 8.32885 2.22791 8.83695 1.97434C9.5529 1.60551 10.2688 1.25973 10.9848 0.937007C11.6777 0.614281 12.2319 0.429866 13.0172 0.383762C14.3336 0.337658 15.6269 0.47597 16.9203 0.683436C18.306 0.913955 19.6455 1.28278 20.9619 1.76687C20.7541 1.88213 20.5231 1.99739 20.3153 2.11265C19.5069 2.57369 18.6986 2.98862 17.9134 3.49576C16.7355 4.23342 15.5807 4.99414 14.4491 5.7779C13.6407 6.3542 12.8555 6.95355 12.0703 7.55289C11.9548 7.6451 11.8855 7.62205 11.7931 7.55289C10.8924 6.88439 9.99171 6.19283 9.091 5.52433C8.16719 4.85582 7.24338 4.21037 6.29648 3.51882L6.31957 3.54187Z" fill="#34312C"/>
</svg>
