<svg width="200" height="30" viewBox="0 0 200 30" fill="none" xmlns="http://www.w3.org/2000/svg">
<path d="M11.544 21.568C11.264 22.064 10.864 22.176 10.344 21.904L3.576 18.112C3.176 17.88 2.976 17.536 2.976 17.08C2.976 16.704 3.176 16.4 3.576 16.168L10.344 12.4C10.848 12.136 11.248 12.248 11.544 12.736C11.808 13.248 11.688 13.648 11.184 13.936L4.8 17.464V16.792L11.208 20.392C11.704 20.688 11.816 21.08 11.544 21.568ZM18.129 25C17.457 25 17.121 24.664 17.121 23.992V9.736C17.121 9.064 17.457 8.728 18.129 8.728C18.801 8.728 19.137 9.064 19.137 9.736V22.984H25.785C26.457 22.984 26.793 23.32 26.793 23.992C26.793 24.664 26.457 25 25.785 25H18.129ZM33.3806 25C32.0366 25 31.0366 24.672 30.3806 24.016C29.7246 23.36 29.3966 22.36 29.3966 21.016C29.3966 19.672 29.7206 18.672 30.3686 18.016C31.0246 17.36 32.0286 17.032 33.3806 17.032H38.4566C38.4086 16.192 38.1886 15.62 37.7966 15.316C37.4046 15.004 36.7326 14.848 35.7806 14.848H34.3886C33.5886 14.848 32.9926 14.904 32.6006 15.016C32.2086 15.12 31.9326 15.312 31.7726 15.592C31.6286 15.928 31.4806 16.16 31.3286 16.288C31.1766 16.416 30.9486 16.48 30.6446 16.48C30.3086 16.48 30.0446 16.388 29.8526 16.204C29.6606 16.012 29.6046 15.76 29.6846 15.448C29.9246 14.544 30.4246 13.884 31.1846 13.468C31.9526 13.044 33.0206 12.832 34.3886 12.832H35.7806C37.3806 12.832 38.5646 13.216 39.3326 13.984C40.1006 14.752 40.4846 15.936 40.4846 17.536V23.992C40.4846 24.664 40.1486 25 39.4766 25C38.8046 25 38.4686 24.664 38.4686 23.992V23.452C37.6126 24.484 36.3646 25 34.7246 25H33.3806ZM33.3806 22.984H34.7246C35.3166 22.984 35.8726 22.932 36.3926 22.828C36.9126 22.716 37.3566 22.516 37.7246 22.228C38.1006 21.94 38.3486 21.528 38.4686 20.992V19.048H33.3806C32.5886 19.048 32.0606 19.18 31.7966 19.444C31.5406 19.708 31.4126 20.232 31.4126 21.016C31.4126 21.808 31.5406 22.336 31.7966 22.6C32.0606 22.856 32.5886 22.984 33.3806 22.984ZM46.254 25C45.582 25 45.246 24.664 45.246 23.992V13.84C45.246 13.168 45.582 12.832 46.254 12.832C46.926 12.832 47.262 13.168 47.262 13.84V14.776C47.734 14.136 48.334 13.652 49.062 13.324C49.798 12.996 50.638 12.832 51.582 12.832C52.254 12.832 52.59 13.168 52.59 13.84C52.59 14.512 52.254 14.848 51.582 14.848C50.198 14.848 49.142 15.104 48.414 15.616C47.686 16.128 47.302 16.804 47.262 17.644V23.992C47.262 24.664 46.926 25 46.254 25ZM59.1474 25C57.5554 25 56.3714 24.616 55.5954 23.848C54.8274 23.08 54.4434 21.904 54.4434 20.32V17.536C54.4434 15.928 54.8274 14.744 55.5954 13.984C56.3714 13.216 57.5554 12.832 59.1474 12.832H61.1154C62.7154 12.832 63.8994 13.216 64.6674 13.984C65.4354 14.752 65.8194 15.936 65.8194 17.536V20.296C65.8194 21.888 65.4354 23.072 64.6674 23.848C63.8994 24.616 62.7154 25 61.1154 25H59.1474ZM56.4594 20.32C56.4594 21.352 56.6474 22.056 57.0234 22.432C57.3994 22.8 58.1074 22.984 59.1474 22.984H61.1154C62.1634 22.984 62.8714 22.796 63.2394 22.42C63.6154 22.044 63.8034 21.336 63.8034 20.296V17.536C63.8034 16.488 63.6154 15.78 63.2394 15.412C62.8714 15.036 62.1634 14.848 61.1154 14.848H59.1474C58.4514 14.848 57.9074 14.928 57.5154 15.088C57.1314 15.24 56.8594 15.512 56.6994 15.904C56.5394 16.288 56.4594 16.832 56.4594 17.536V20.32ZM83.5504 12.832C85.0624 12.832 86.1464 13.188 86.8024 13.9C87.4664 14.612 87.7984 15.792 87.7984 17.44V23.992C87.7984 24.664 87.4624 25 86.7904 25C86.1184 25 85.7824 24.664 85.7824 23.992V17.44C85.7824 16.528 85.6064 15.868 85.2544 15.46C84.9104 15.052 84.3424 14.848 83.5504 14.848H82.5664C81.6544 14.848 81.0024 15.052 80.6104 15.46C80.2184 15.868 80.0224 16.528 80.0224 17.44V23.992C80.0224 24.664 79.6864 25 79.0144 25C78.3424 25 78.0064 24.664 78.0064 23.992V17.44C78.0064 16.528 77.8304 15.868 77.4784 15.46C77.1344 15.052 76.5664 14.848 75.7744 14.848H74.7904C73.8784 14.848 73.2264 15.052 72.8344 15.46C72.4424 15.868 72.2464 16.528 72.2464 17.44V23.992C72.2464 24.664 71.9104 25 71.2384 25C70.5664 25 70.2304 24.664 70.2304 23.992V13.84C70.2304 13.168 70.5664 12.832 71.2384 12.832C71.9104 12.832 72.2464 13.168 72.2464 13.84V14.392C72.6704 13.84 73.1344 13.444 73.6384 13.204C74.1504 12.956 74.7584 12.832 75.4624 12.832H75.7744C76.7664 12.832 77.5464 12.972 78.1144 13.252C78.6824 13.524 79.1144 13.968 79.4104 14.584C79.8344 13.952 80.2824 13.504 80.7544 13.24C81.2344 12.968 81.8384 12.832 82.5664 12.832H83.5504ZM110.512 10.864C109.752 10.864 109.372 10.48 109.372 9.712V9.004C109.372 8.252 109.752 7.876 110.512 7.876H111.208C111.936 7.876 112.3 8.252 112.3 9.004V9.712C112.3 10.48 111.936 10.864 111.208 10.864H110.512ZM110.848 25C110.176 25 109.84 24.664 109.84 23.992V13.84C109.84 13.168 110.176 12.832 110.848 12.832C111.52 12.832 111.856 13.168 111.856 13.84V23.992C111.856 24.664 111.52 25 110.848 25ZM119.728 29.8C118.76 29.8 117.996 29.604 117.436 29.212C116.884 28.82 116.528 28.224 116.368 27.424C116.312 27.088 116.372 26.824 116.548 26.632C116.724 26.44 116.992 26.344 117.352 26.344C117.656 26.344 117.876 26.424 118.012 26.584C118.156 26.752 118.28 27 118.384 27.328C118.48 27.504 118.628 27.624 118.828 27.688C119.036 27.752 119.336 27.784 119.728 27.784H124.192C124.792 27.784 125.18 27.688 125.356 27.496C125.54 27.312 125.632 26.928 125.632 26.344V23.548C125.2 24.02 124.664 24.38 124.024 24.628C123.392 24.876 122.68 25 121.888 25H120.976C119.384 25 118.2 24.616 117.424 23.848C116.656 23.08 116.272 21.904 116.272 20.32V17.536C116.272 15.928 116.652 14.744 117.412 13.984C118.18 13.216 119.368 12.832 120.976 12.832H122.944C123.512 12.832 124.02 12.916 124.468 13.084C124.924 13.252 125.312 13.508 125.632 13.852V13.84C125.632 13.168 125.968 12.832 126.64 12.832C127.312 12.832 127.648 13.168 127.648 13.84V26.344C127.648 27.52 127.364 28.388 126.796 28.948C126.236 29.516 125.368 29.8 124.192 29.8H119.728ZM120.976 22.984H121.888C122.944 22.984 123.832 22.852 124.552 22.588C125.272 22.324 125.632 21.904 125.632 21.328V16.528C125.632 15.88 125.396 15.44 124.924 15.208C124.46 14.968 123.8 14.848 122.944 14.848H120.976C119.944 14.848 119.236 15.032 118.852 15.4C118.476 15.768 118.288 16.48 118.288 17.536V20.32C118.288 21.336 118.476 22.036 118.852 22.42C119.228 22.796 119.936 22.984 120.976 22.984ZM133.082 10.864C132.322 10.864 131.942 10.48 131.942 9.712V9.004C131.942 8.252 132.322 7.876 133.082 7.876H133.778C134.506 7.876 134.87 8.252 134.87 9.004V9.712C134.87 10.48 134.506 10.864 133.778 10.864H133.082ZM133.418 25C132.746 25 132.41 24.664 132.41 23.992V13.84C132.41 13.168 132.746 12.832 133.418 12.832C134.09 12.832 134.426 13.168 134.426 13.84V23.992C134.426 24.664 134.09 25 133.418 25ZM144.554 25C142.97 25 141.802 24.624 141.05 23.872C140.298 23.12 139.922 21.96 139.922 20.392V14.848H138.746C138.074 14.848 137.738 14.512 137.738 13.84C137.738 13.168 138.074 12.832 138.746 12.832H139.922V11.08C139.922 10.408 140.258 10.072 140.93 10.072C141.602 10.072 141.938 10.408 141.938 11.08V12.832H144.698C145.37 12.832 145.706 13.168 145.706 13.84C145.706 14.512 145.37 14.848 144.698 14.848H141.938V20.392C141.938 21.408 142.122 22.096 142.49 22.456C142.858 22.808 143.546 22.984 144.554 22.984C144.866 22.984 145.11 23.064 145.286 23.224C145.47 23.384 145.562 23.64 145.562 23.992C145.562 24.664 145.226 25 144.554 25ZM152.49 25C151.146 25 150.146 24.672 149.49 24.016C148.834 23.36 148.506 22.36 148.506 21.016C148.506 19.672 148.83 18.672 149.478 18.016C150.134 17.36 151.138 17.032 152.49 17.032H157.566C157.518 16.192 157.298 15.62 156.906 15.316C156.514 15.004 155.842 14.848 154.89 14.848H153.498C152.698 14.848 152.102 14.904 151.71 15.016C151.318 15.12 151.042 15.312 150.882 15.592C150.738 15.928 150.59 16.16 150.438 16.288C150.286 16.416 150.058 16.48 149.754 16.48C149.418 16.48 149.154 16.388 148.962 16.204C148.77 16.012 148.714 15.76 148.794 15.448C149.034 14.544 149.534 13.884 150.294 13.468C151.062 13.044 152.13 12.832 153.498 12.832H154.89C156.49 12.832 157.674 13.216 158.442 13.984C159.21 14.752 159.594 15.936 159.594 17.536V23.992C159.594 24.664 159.258 25 158.586 25C157.914 25 157.578 24.664 157.578 23.992V23.452C156.722 24.484 155.474 25 153.834 25H152.49ZM152.49 22.984H153.834C154.426 22.984 154.982 22.932 155.502 22.828C156.022 22.716 156.466 22.516 156.834 22.228C157.21 21.94 157.458 21.528 157.578 20.992V19.048H152.49C151.698 19.048 151.17 19.18 150.906 19.444C150.65 19.708 150.522 20.232 150.522 21.016C150.522 21.808 150.65 22.336 150.906 22.6C151.17 22.856 151.698 22.984 152.49 22.984ZM167.979 25C166.755 25 165.843 24.7 165.243 24.1C164.651 23.492 164.355 22.576 164.355 21.352V9.112C164.355 8.44 164.691 8.104 165.363 8.104C166.035 8.104 166.371 8.44 166.371 9.112V21.352C166.371 22 166.475 22.436 166.683 22.66C166.899 22.876 167.331 22.984 167.979 22.984C168.667 22.984 169.011 23.32 169.011 23.992C169.035 24.664 168.691 25 167.979 25ZM188.228 21.568C187.956 21.08 188.068 20.688 188.564 20.392L194.972 16.792V17.464L188.588 13.936C188.084 13.648 187.964 13.248 188.228 12.736C188.524 12.248 188.924 12.136 189.428 12.4L196.196 16.168C196.596 16.4 196.796 16.704 196.796 17.08C196.796 17.536 196.596 17.88 196.196 18.112L189.428 21.904C188.908 22.176 188.508 22.064 188.228 21.568Z" fill="#34312C"/>
<path d="M93.5509 25C92.8789 25 92.5429 24.664 92.5429 23.992V9.736C92.5429 9.064 92.8789 8.728 93.5509 8.728H99.3349C101.423 8.728 102.959 9.224 103.943 10.216C104.935 11.2 105.431 12.736 105.431 14.824V18.904C105.431 20.992 104.939 22.532 103.955 23.524C102.979 24.508 101.439 25 99.3349 25H93.5509ZM94.5589 22.984H99.3349C100.359 22.984 101.167 22.86 101.759 22.612C102.359 22.356 102.783 21.932 103.031 21.34C103.287 20.74 103.415 19.928 103.415 18.904V14.824C103.415 13.808 103.287 13.004 103.031 12.412C102.783 11.812 102.359 11.384 101.759 11.128C101.167 10.872 100.359 10.744 99.3349 10.744H94.5589V22.984Z" fill="#D7322D"/>
<path d="M175.896 26.672C175.512 26.672 175.228 26.552 175.044 26.312C174.86 26.072 174.816 25.76 174.912 25.376L179.832 6.272C180 5.744 180.328 5.48 180.816 5.48C181.2 5.48 181.484 5.604 181.668 5.852C181.86 6.092 181.896 6.4 181.776 6.776L176.88 25.88C176.736 26.408 176.408 26.672 175.896 26.672Z" fill="#D7322D"/>
</svg>
